<svg xmlns="http://www.w3.org/2000/svg" width="12" height="11" viewBox="0 0 12 11">
  <g id="like" transform="translate(0 0)" fill="none">
    <path d="M8.624,0A3.293,3.293,0,0,0,6,1.353,3.29,3.29,0,0,0,3.376,0,3.519,3.519,0,0,0,0,3.639,4.789,4.789,0,0,0,.978,6.35a24.383,24.383,0,0,0,4.588,4.5.706.706,0,0,0,.867,0,24.374,24.374,0,0,0,4.588-4.5A4.789,4.789,0,0,0,12,3.639,3.518,3.518,0,0,0,8.624,0Z" stroke="none"/>
    <path d="M 3.375670433044434 1.000005722045898 C 2.065719604492188 1.000005722045898 1 2.18370532989502 1 3.638675689697266 C 1 4.541145801544189 1.415949821472168 5.184785842895508 1.818140029907227 5.807125568389893 C 2.83683967590332 7.383015632629395 5.324960708618164 9.391744613647461 6.000685691833496 9.922500610351562 C 6.995269298553467 9.147626876831055 9.256002426147461 7.239015579223633 10.18163013458252 5.806975841522217 C 10.58395957946777 5.184345722198486 11 4.540515899658203 11 3.638675689697266 C 11 2.18370532989502 9.934280395507812 1.000005722045898 8.624340057373047 1.000005722045898 C 7.919390201568604 1.000005722045898 7.254360198974609 1.347355842590332 6.799769878387451 1.952985763549805 L 5.999619960784912 3.018995761871338 L 5.199960231781006 1.952615737915039 C 4.745979785919189 1.34721565246582 4.081049919128418 1.000005722045898 3.375670433044434 1.000005722045898 M 3.375670433044434 5.7220458984375e-06 C 4.408669948577881 5.7220458984375e-06 5.368340015411377 0.5103359222412109 6 1.352675437927246 C 6.632009983062744 0.5106754302978516 7.592000007629395 5.7220458984375e-06 8.624340057373047 5.7220458984375e-06 C 10.48567008972168 5.7220458984375e-06 12 1.63200569152832 12 3.638675689697266 C 12 4.835675716400146 11.45730018615723 5.675345897674561 11.02134037017822 6.350005626678467 C 9.754670143127441 8.309675216674805 6.56866979598999 10.74867534637451 6.433340072631836 10.85134601593018 C 6.174571514129639 11.04888916015625 5.826916217803955 11.04976367950439 5.56633996963501 10.85134601593018 C 5.431340217590332 10.74867534637451 2.245329856872559 8.310005187988281 0.9783296585083008 6.350005626678467 C 0.5423297882080078 5.675345897674561 0 4.835675716400146 0 3.638675689697266 C 0 1.632335662841797 1.514340400695801 5.7220458984375e-06 3.375670433044434 5.7220458984375e-06 Z" stroke="none" fill="#8e8e93"/>
  </g>
</svg>
